<?xml version="1.0" encoding="UTF-8"?>
<svg xmlns="http://www.w3.org/2000/svg" xmlns:xlink="http://www.w3.org/1999/xlink" width="133px" height="50px" viewBox="0 0 132 50" version="1.1">
<g id="surface1">
<path style=" stroke:none;fill-rule:nonzero;fill:rgb(0%,0%,0%);fill-opacity:1;" d="M 10.828125 12.964844 L 5.601562 12.964844 C 5.257812 12.964844 5.007812 12.679688 5.007812 12.367188 L 5.007812 10.578125 C 5.007812 10.261719 5.257812 9.980469 5.601562 9.980469 L 19.339844 9.980469 C 19.683594 9.980469 19.933594 10.261719 19.933594 10.578125 L 19.933594 12.367188 C 19.933594 12.679688 19.683594 12.964844 19.339844 12.964844 L 14.144531 12.964844 L 14.144531 31.765625 C 14.144531 32.078125 13.863281 32.359375 13.550781 32.359375 L 11.453125 32.359375 C 11.140625 32.359375 10.859375 32.078125 10.859375 31.765625 L 10.859375 12.964844 Z M 10.828125 12.964844 "/>
<path style=" stroke:none;fill-rule:nonzero;fill:rgb(0%,0%,0%);fill-opacity:1;" d="M 28.726562 10.546875 C 28.726562 10.230469 29.007812 9.949219 29.324219 9.949219 L 31.417969 9.949219 C 31.730469 9.949219 32.015625 10.230469 32.015625 10.546875 L 32.015625 31.765625 C 32.015625 32.078125 31.730469 32.359375 31.417969 32.359375 L 29.324219 32.359375 C 29.007812 32.359375 28.726562 32.078125 28.726562 31.765625 Z M 28.726562 10.546875 "/>
<path style=" stroke:none;fill-rule:nonzero;fill:rgb(0%,0%,0%);fill-opacity:1;" d="M 40.023438 29.566406 L 41.183594 28.3125 C 41.621094 27.933594 41.902344 28.058594 42.214844 28.375 C 42.683594 28.90625 43.59375 29.753906 44.84375 29.753906 C 46.410156 29.753906 48.066406 28.53125 48.066406 25.707031 L 48.066406 10.546875 C 48.066406 10.230469 48.320312 9.949219 48.664062 9.949219 L 50.757812 9.949219 C 51.105469 9.949219 51.355469 10.230469 51.355469 10.546875 L 51.355469 25.675781 C 51.355469 30.132812 48.539062 32.707031 44.8125 32.707031 C 42.027344 32.707031 40.496094 31.042969 39.960938 30.351562 C 39.804688 30.101562 39.835938 29.785156 40.023438 29.566406 Z M 40.023438 29.566406 "/>
<path style=" stroke:none;fill-rule:nonzero;fill:rgb(0%,0%,0%);fill-opacity:1;" d="M 71.945312 9.636719 C 78.332031 9.636719 83.460938 14.785156 83.460938 21.21875 C 83.460938 27.652344 78.363281 32.738281 71.945312 32.738281 C 65.5625 32.738281 60.460938 27.652344 60.460938 21.21875 C 60.460938 14.785156 65.53125 9.636719 71.945312 9.636719 Z M 71.945312 29.503906 C 76.515625 29.503906 80.238281 25.800781 80.238281 21.21875 C 80.238281 16.667969 76.515625 12.867188 71.945312 12.867188 C 67.410156 12.867188 63.683594 16.699219 63.683594 21.21875 C 63.652344 25.769531 67.410156 29.503906 71.945312 29.503906 Z M 71.945312 29.503906 "/>
<path style=" stroke:none;fill-rule:nonzero;fill:rgb(0%,0%,0%);fill-opacity:1;" d="M 93.351562 10.546875 C 93.351562 10.230469 93.601562 9.949219 93.945312 9.949219 L 102.644531 9.949219 C 106.496094 9.949219 109.625 12.996094 109.625 16.792969 C 109.625 19.742188 107.683594 22.191406 104.898438 23.289062 L 109.28125 31.417969 C 109.5 31.828125 109.28125 32.359375 108.75 32.359375 L 106.246094 32.359375 C 105.996094 32.359375 105.808594 32.203125 105.746094 32.078125 L 101.457031 23.601562 L 96.636719 23.601562 L 96.636719 31.765625 C 96.636719 32.078125 96.355469 32.359375 96.042969 32.359375 L 93.945312 32.359375 C 93.601562 32.359375 93.351562 32.078125 93.351562 31.765625 Z M 102.394531 20.839844 C 104.460938 20.839844 106.308594 19.082031 106.308594 16.855469 C 106.308594 14.785156 104.492188 13.027344 102.394531 13.027344 L 96.699219 13.027344 L 96.699219 20.808594 L 102.394531 20.808594 Z M 102.394531 20.839844 "/>
<path style=" stroke:none;fill-rule:nonzero;fill:rgb(0%,0%,0%);fill-opacity:1;" d="M 119.921875 10.546875 C 119.921875 10.230469 120.203125 9.949219 120.515625 9.949219 L 122.613281 9.949219 C 122.925781 9.949219 123.207031 10.230469 123.207031 10.546875 L 123.207031 31.765625 C 123.207031 32.078125 122.925781 32.359375 122.613281 32.359375 L 120.515625 32.359375 C 120.203125 32.359375 119.921875 32.078125 119.921875 31.765625 Z M 119.921875 10.546875 "/>
<path style="fill:none;stroke-width:8;stroke-linecap:butt;stroke-linejoin:miter;stroke:rgb(98.431373%,73.72549%,2.352941%);stroke-opacity:1;stroke-miterlimit:10;" d="M 26.501992 134.894742 L 398.405471 134.894742 " transform="matrix(0.312949,0,0,0.313873,0.061704,0)"/>
</g>
</svg>
